<svg width="59" height="36" viewBox="0 0 59 36" fill="none" xmlns="http://www.w3.org/2000/svg">
<path id="Vector" opacity="0.06" d="M21.5794 15.3529C23.0972 16.2941 24.2521 17.5 25.044 18.9706C25.8359 20.3824 26.2319 21.9706 26.2319 23.7353C26.2319 27.3824 24.879 30.3529 22.1733 32.6471C19.4677 34.8824 16.1351 36 12.1755 36C8.54598 36 5.60933 35.0294 3.3656 33.0882C1.12187 31.1471 0 28.6176 0 25.5C0 23.9118 0.329961 22.3824 0.989882 20.9118C1.6498 19.4412 2.87066 17.5588 4.65244 15.2647L16.333 0H30.1914L21.5794 15.3529ZM50.286 15.3529C51.8038 16.2941 52.9587 17.5 53.7506 18.9706C54.5425 20.3824 54.9384 21.9706 54.9384 23.7353C54.9384 27.3824 53.5856 30.3529 50.8799 32.6471C48.1742 34.8824 44.8416 36 40.8821 36C37.2525 36 34.3159 35.0294 32.0722 33.0882C29.8284 31.1471 28.7066 28.6176 28.7066 25.5C28.7066 23.9118 29.0365 22.3824 29.6964 20.9118C30.3564 19.4412 31.5772 17.5588 33.359 15.2647L45.0396 0H58.898L50.286 15.3529Z" fill="#333333"/>
</svg>
